<?xml version="1.0" encoding="utf-8"?>
<!-- Generator: Adobe Illustrator 16.0.0, SVG Export Plug-In . SVG Version: 6.00 Build 0)  -->
<!DOCTYPE svg PUBLIC "-//W3C//DTD SVG 1.0//EN" "http://www.w3.org/TR/2001/REC-SVG-20010904/DTD/svg10.dtd">
<svg version="1.0" id="Layer_1" xmlns="http://www.w3.org/2000/svg" xmlns:xlink="http://www.w3.org/1999/xlink" x="0px" y="0px"
	 width="20px" height="20px" viewBox="0 0 20 20" enable-background="new 0 0 20 20" xml:space="preserve">
<g>
	<path fill-rule="evenodd" clip-rule="evenodd" fill="#231F20" d="M17.898,3.009H1.901c-0.553,0-1,0.449-1,0.998V5.21
		c0,0.55,0.447,1.001,1,1.001h15.997c0.553,0,1.002-0.451,1.002-1.001V4.006C18.9,3.458,18.451,3.009,17.898,3.009z"/>
	<path fill-rule="evenodd" clip-rule="evenodd" fill="#231F20" d="M17.898,8.628H1.901c-0.553,0-1,0.45-1,0.999v1.204
		c0,0.549,0.447,1,1,1h15.997c0.553,0,1.002-0.45,1.002-1V9.627C18.9,9.078,18.451,8.628,17.898,8.628z"/>
	<path fill-rule="evenodd" clip-rule="evenodd" fill="#231F20" d="M17.898,14.248H1.901c-0.553,0-1,0.45-1,0.998v1.202
		c0,0.552,0.447,1.001,1,1.001h15.997c0.553,0,1.002-0.449,1.002-1.001v-1.202C18.9,14.698,18.451,14.248,17.898,14.248z"/>
</g>
</svg>
