<?xml version="1.0" encoding="utf-8"?>
<!-- Generator: Adobe Illustrator 16.0.0, SVG Export Plug-In . SVG Version: 6.00 Build 0)  -->
<!DOCTYPE svg PUBLIC "-//W3C//DTD SVG 1.0//EN" "http://www.w3.org/TR/2001/REC-SVG-20010904/DTD/svg10.dtd">
<svg version="1.0" id="Layer_1" xmlns="http://www.w3.org/2000/svg" xmlns:xlink="http://www.w3.org/1999/xlink" x="0px" y="0px"
	 width="20px" height="20px" viewBox="0 0 20 20" enable-background="new 0 0 20 20" xml:space="preserve">
<path fill="#231F20" d="M7.982,1.276C4.124,1.276,1,4.367,1,8.188c0,3.818,3.123,6.91,6.982,6.91c1.667,0,3.186-0.58,4.385-1.543
	c0.056,0.095,0.104,0.196,0.188,0.273l4.347,4.312c0.241,0.236,0.556,0.354,0.869,0.354c0.311,0,0.625-0.118,0.868-0.36
	c0.477-0.471,0.477-1.245,0-1.715l-4.344-4.313c-0.126-0.117-0.259-0.202-0.406-0.267c0.672-1.054,1.063-2.307,1.063-3.652
	C14.952,4.367,11.83,1.276,7.982,1.276z M7.982,3.405c2.66,0,4.823,2.143,4.823,4.782c0,0.894-0.257,1.76-0.735,2.529l-0.436,0.692
	l-0.614,0.495c-0.871,0.697-1.919,1.064-3.038,1.064c-2.67,0-4.83-2.144-4.83-4.781C3.153,5.548,5.312,3.405,7.982,3.405z"/>
</svg>
