<?xml version="1.0" encoding="utf-8"?>
<!-- Generator: Adobe Illustrator 16.0.0, SVG Export Plug-In . SVG Version: 6.00 Build 0)  -->
<!DOCTYPE svg PUBLIC "-//W3C//DTD SVG 1.0//EN" "http://www.w3.org/TR/2001/REC-SVG-20010904/DTD/svg10.dtd">
<svg version="1.0" id="Layer_1" xmlns="http://www.w3.org/2000/svg" xmlns:xlink="http://www.w3.org/1999/xlink" x="0px" y="0px"
	 width="20px" height="20px" viewBox="0 0 20 20" enable-background="new 0 0 20 20" xml:space="preserve">
<path fill="#231F20" d="M9.763,13.632c-3.562,0-6.451-2.811-6.451-6.282c0-3.475,2.889-6.288,6.451-6.288
	c3.569,0,6.455,2.812,6.455,6.288C16.218,10.821,13.332,13.632,9.763,13.632z M16.578,2.032c1.345,1.535,2.326,3.516,2.326,5.693
	c0,4.691-3.75,8.456-8.518,8.688v1.635h3.004v0.75H6.634v-0.75h3.003v-1.453c-2.402-0.202-4.84-1.456-6.331-3.129l-1.359,0.697
	l-0.562-0.606l1.028-0.735l-0.015-0.015l0.495-0.404l0.27-0.24l0.009,0.006l0.252-0.217c1.389,1.951,3.691,3.231,6.302,3.231
	c4.237,0,7.665-3.343,7.665-7.457c0-2.132-0.923-4.052-2.385-5.41l0.659-0.554l0.999-0.96l0.592,0.585L16.578,2.032z"/>
</svg>
