<?xml version="1.0" encoding="utf-8"?>
<!-- Generator: Adobe Illustrator 16.0.0, SVG Export Plug-In . SVG Version: 6.00 Build 0)  -->
<!DOCTYPE svg PUBLIC "-//W3C//DTD SVG 1.0//EN" "http://www.w3.org/TR/2001/REC-SVG-20010904/DTD/svg10.dtd">
<svg version="1.0" id="Layer_1" xmlns="http://www.w3.org/2000/svg" xmlns:xlink="http://www.w3.org/1999/xlink" x="0px" y="0px"
	 width="20px" height="20px" viewBox="0 0 20 20" enable-background="new 0 0 20 20" xml:space="preserve">
<g>
	<circle fill="#231F20" cx="10.473" cy="2.897" r="1.399"/>
	<path fill="#231F20" d="M12.471,6.511c0-1.103-0.895-1.997-1.998-1.997c-1.104,0-1.999,0.894-1.999,1.997v2.938h3.997V6.511z"/>
	<path fill="#231F20" d="M14.016,13.765c0,0.67,0.543,1.213,1.212,1.213c0.667,0,1.209-0.543,1.209-1.213
		c0-0.667-0.542-1.209-1.209-1.209C14.559,12.556,14.016,13.098,14.016,13.765z"/>
	<polygon fill="#231F20" points="5.825,11.129 10.363,11.129 10.363,12.17 10.58,12.17 10.58,11.129 15.117,11.129 15.117,12.17 
		15.335,12.17 15.335,10.911 10.58,10.911 10.58,10.033 10.363,10.033 10.363,10.911 5.608,10.911 5.608,12.17 5.825,12.17 	"/>
	<path fill="#231F20" d="M10.473,15.224c-0.957,0-1.731,0.775-1.731,1.729v2.545h3.461v-2.545
		C12.203,15.999,11.428,15.224,10.473,15.224z"/>
	<path fill="#231F20" d="M15.228,15.224c-0.956,0-1.729,0.775-1.729,1.729v2.545h3.459v-2.545
		C16.957,15.999,16.18,15.224,15.228,15.224z"/>
	<path fill="#231F20" d="M9.261,13.765c0,0.67,0.542,1.213,1.211,1.213c0.668,0,1.211-0.543,1.211-1.213
		c0-0.667-0.543-1.209-1.211-1.209C9.804,12.556,9.261,13.098,9.261,13.765z"/>
	<path fill="#231F20" d="M5.72,15.224c-0.958,0-1.732,0.775-1.732,1.729v2.545h3.459v-2.545C7.447,15.999,6.673,15.224,5.72,15.224z
		"/>
	<circle fill="#231F20" cx="5.72" cy="13.767" r="1.211"/>
</g>
</svg>
