<?xml version="1.0" encoding="utf-8"?>
<!-- Generator: Adobe Illustrator 16.0.0, SVG Export Plug-In . SVG Version: 6.00 Build 0)  -->
<!DOCTYPE svg PUBLIC "-//W3C//DTD SVG 1.0//EN" "http://www.w3.org/TR/2001/REC-SVG-20010904/DTD/svg10.dtd">
<svg version="1.0" id="Layer_1" xmlns="http://www.w3.org/2000/svg" xmlns:xlink="http://www.w3.org/1999/xlink" x="0px" y="0px"
	 width="20px" height="20px" viewBox="0 0 20 20" enable-background="new 0 0 20 20" xml:space="preserve">
<g>
	<path fill="#231F20" d="M5.218,13.545c0.745,0.344,1.392,0.521,1.45,0.396l1.031-1.896c0.036-0.072-0.164-0.242-0.495-0.445
		c0.013-0.119,0.005-0.235-0.013-0.35c-0.12-0.008-0.235-0.039-0.344-0.087c0.001,0.003,0.001,0.003,0.001,0.007
		c0.028,0.076,0.031,0.16,0.034,0.242c-0.166-0.092-0.351-0.185-0.55-0.275c-0.195-0.094-0.389-0.174-0.569-0.243
		c0.181-0.134,0.389-0.194,0.59-0.157c-0.063-0.113-0.099-0.221-0.119-0.325c-0.296,0-0.595,0.125-0.822,0.358
		c-0.366-0.119-0.622-0.16-0.656-0.087l-0.779,2.011C3.919,12.821,4.477,13.2,5.218,13.545z"/>
	<circle fill="#231F20" cx="13.713" cy="3.16" r="1.697"/>
	<path fill="#231F20" d="M7.73,12.657l-0.774,1.42C6.919,14.16,6.812,14.3,6.552,14.3c-0.32,0-0.86-0.203-1.208-0.351l-0.067,0.146
		L4.75,13.854l0.069-0.146c-0.462-0.23-1.033-0.566-1.139-0.856l-0.043-0.16l0.043-0.112l0.59-1.523
		c-0.607,0.385-1.131,1.225-1.792,2.567l-0.752,1.581c-0.062,0.138-0.124,0.279-0.194,0.425l4.484,2.074
		c0.069-0.146,0.133-0.287,0.198-0.425l0.72-1.59C7.532,14.311,7.831,13.369,7.73,12.657z M6.291,16.121L5.732,17.33l-3.735-1.729
		l0.561-1.21c0.159-0.341,0.573-0.516,1.09-0.516c0.387,0,0.834,0.1,1.278,0.303C5.957,14.657,6.57,15.524,6.291,16.121z"/>
	<path fill="#231F20" d="M4.791,14.471C4.406,14.292,4,14.194,3.647,14.194c-0.405,0-0.703,0.124-0.798,0.332l-0.426,0.919
		l3.155,1.461l0.425-0.92c0.052-0.113,0.049-0.25-0.006-0.408C5.846,15.169,5.384,14.744,4.791,14.471z"/>
	<path fill="#231F20" d="M14.857,9.61l1.503,2.397c0.211,0.337,0.645,0.433,0.988,0.229c0.344-0.201,0.457-0.653,0.266-1.003
		l-2.018-3.648c-0.086-0.153-0.159-0.325-0.232-0.502c-0.324-0.76-0.812-1.908-2.339-2.04c-3.537-0.278-6.16,4.347-6.268,4.54
		c-0.186,0.334-0.344,0.624-0.127,0.993c0.131,0.226,0.375,0.364,0.632,0.364h0.003c0.422-0.002,0.591-0.281,0.789-0.607
		c0.473-0.775,1.861-2.629,3.28-3.097l-0.289,3.494c-0.028,0.345-0.138,0.938-0.231,1.272l-0.651,2.275
		c-0.083,0.288-0.331,0.766-0.518,0.998L7.893,17.45c-0.224,0.276-0.475,0.589-0.268,1.021c0.124,0.255,0.381,0.418,0.665,0.418
		c0.341,0,0.52-0.194,0.753-0.442l1.776-1.915c0.316-0.34,0.728-0.936,0.933-1.355l0.885-1.794l3.257,5.478
		c0.162,0.268,0.362,0.604,0.805,0.604c0.249,0,0.487-0.129,0.623-0.341c0.23-0.361,0.075-0.691-0.06-0.984l-2.636-5.721
		c-0.103-0.225-0.161-0.684-0.115-0.926L14.857,9.61z"/>
</g>
</svg>
