<?xml version="1.0" encoding="utf-8"?>
<!-- Generator: Adobe Illustrator 16.0.0, SVG Export Plug-In . SVG Version: 6.00 Build 0)  -->
<!DOCTYPE svg PUBLIC "-//W3C//DTD SVG 1.0//EN" "http://www.w3.org/TR/2001/REC-SVG-20010904/DTD/svg10.dtd">
<svg version="1.0" id="Layer_1" xmlns="http://www.w3.org/2000/svg" xmlns:xlink="http://www.w3.org/1999/xlink" x="0px" y="0px"
	 width="20px" height="20px" viewBox="0 0 20 20" enable-background="new 0 0 20 20" xml:space="preserve">
<path fill="#231F20" d="M11.118,9.271l-1.14,3.119c-0.098,0.24-0.271,0.645-0.271,0.899c0,0.113,0.068,0.226,0.195,0.226
	c0.473,0,1.343-1.365,1.567-1.365c0.083,0,0.188,0.098,0.188,0.24c0,0.465-1.853,2.453-3.458,2.453c-0.57,0-0.967-0.271-0.967-0.878
	c0-0.772,0.539-2.086,0.651-2.354l1.11-2.82c0.113-0.292-0.03-0.435-0.157-0.435c-0.585,0-1.35,1.395-1.636,1.395
	c-0.112,0-0.209-0.112-0.209-0.209c0-0.286,0.705-0.96,0.908-1.17c0.637-0.607,1.462-1.072,2.377-1.072
	C10.96,7.298,11.695,7.718,11.118,9.271z M10.93,6.72c-0.653,0-1.081-0.428-1.081-1.088c0-0.705,0.607-1.282,1.306-1.282
	c0.63,0,1.095,0.435,1.095,1.095C12.25,6.179,11.642,6.72,10.93,6.72z M10,2.4c-3.968,0-7.2,3.232-7.2,7.2
	c0,3.966,3.232,7.199,7.2,7.199c3.967,0,7.199-3.232,7.199-7.199C17.199,5.632,13.967,2.4,10,2.4z M10,18.6c-4.965,0-9-4.035-9-9
	c0-4.965,4.035-9,9-9c4.957,0,9,4.035,9,9C19,14.564,14.957,18.6,10,18.6z"/>
</svg>
