<?xml version="1.0" encoding="utf-8"?>
<!-- Generator: Adobe Illustrator 16.0.0, SVG Export Plug-In . SVG Version: 6.00 Build 0)  -->
<!DOCTYPE svg PUBLIC "-//W3C//DTD SVG 1.0//EN" "http://www.w3.org/TR/2001/REC-SVG-20010904/DTD/svg10.dtd">
<svg version="1.0" id="Layer_1" xmlns="http://www.w3.org/2000/svg" xmlns:xlink="http://www.w3.org/1999/xlink" x="0px" y="0px"
	 width="20px" height="20px" viewBox="0 0 20 20" enable-background="new 0 0 20 20" xml:space="preserve">
<g>
	<polygon fill="#231F20" points="3.749,10.461 0.664,10.461 0.664,7.817 3.749,7.817 3.749,7.815 3.749,4.731 6.391,4.731 
		6.391,7.815 6.391,7.817 9.476,7.817 9.476,10.461 6.391,10.461 6.391,10.461 6.391,13.545 3.749,13.545 3.749,10.461 	"/>
	<g>
		<path fill="#231F20" d="M13.566,9.091c0-2.054,1.668-3.721,3.723-3.721c0.455,0,0.895,0.083,1.299,0.234
			c-0.762-0.602-1.723-0.961-2.77-0.961c-2.465,0-4.463,1.998-4.463,4.464c0,2.465,1.998,4.462,4.463,4.462
			c1.082,0,2.072-0.383,2.846-1.021c-0.428,0.17-0.891,0.263-1.375,0.263C15.234,12.811,13.566,11.145,13.566,9.091z"/>
	</g>
</g>
</svg>
