<?xml version="1.0" encoding="utf-8"?>
<!-- Generator: Adobe Illustrator 16.0.0, SVG Export Plug-In . SVG Version: 6.00 Build 0)  -->
<!DOCTYPE svg PUBLIC "-//W3C//DTD SVG 1.0//EN" "http://www.w3.org/TR/2001/REC-SVG-20010904/DTD/svg10.dtd">
<svg version="1.0" id="Layer_1" xmlns="http://www.w3.org/2000/svg" xmlns:xlink="http://www.w3.org/1999/xlink" x="0px" y="0px"
	 width="20px" height="20px" viewBox="0 0 20 20" enable-background="new 0 0 20 20" xml:space="preserve">
<path fill="#231F20" d="M13.466,2.467C12.898,2,12.499,2.109,11.932,3.126c-0.379,0.67-0.977,0.75-1.344,0.731l0.006-0.134
	c0.427-0.211,0.726-0.638,0.726-1.148c0-0.712-0.58-1.287-1.291-1.287S8.735,1.863,8.735,2.575c0,0.51,0.301,0.937,0.726,1.146
	l0.002,0.137C9.102,3.876,8.499,3.797,8.122,3.126C7.558,2.109,7.158,2,6.591,2.467C6.023,2.935,3.773,5.623,1.028,5.376
	c0,0,0.545,1.233,2.026,0.96c0,0,0.793,0.82,2.08,0.246c0,0,0.668,0.602,1.727,0.053c0,0,0.789,0.606,1.633,0.082
	c0,0,0.475,0.346,1.004,0.256l0.033,3.107c-0.058-0.015-0.105-0.026-0.166-0.038c0,0-0.924-0.2-1.896-0.472
	C6.535,9.325,5.506,8.93,5.357,8.722C5.37,8.71,5.393,8.7,5.418,8.687C5.5,8.643,5.641,8.596,5.814,8.562
	C6.154,8.49,6.623,8.457,7.085,8.438c0.932-0.032,1.103,0.009,1.12,0.009c0-0.026,0.532,0.064,0.684-0.482
	C8.881,7.96,8.896,7.937,8.891,7.925C8.86,7.55,8.566,7.531,8.333,7.488C7.946,7.436,8.147,7.456,7.63,7.462
	c-0.849,0.063-3.473-0.149-3.802,1.23c0,0.038-0.005,0.064-0.01,0.097c0.11,1.204,2.597,1.725,4.404,2.084
	c-0.612,0.42-0.944,0.964-1.069,1.671c-0.065,0.748,0.532,1.461,1.918,2.265c-1.055,0.743-1.742,1.446-1.688,2.29
	c0.101,0.686,0.703,1.604,1.898,2.188c0.005,0.002,0.008-0.003,0.013,0l0,0c0,0,0,0,0.003,0c0,0-0.842-1.273-0.895-1.977
	c-0.055-0.404,0.176-1.007,1.195-1.735l0.03,2.557h0.005c0.003,0.216,0.174,0.392,0.385,0.392s0.374-0.176,0.387-0.392h0.002
	l0.035-2.491c0.932,0.698,1.146,1.278,1.09,1.67c-0.055,0.703-0.889,1.977-0.889,1.977h0.005c0,0,0,0.002,0.005,0
	c1.195-0.583,1.806-1.502,1.898-2.188c0.056-0.844-0.633-1.547-1.685-2.29c1.384-0.804,1.981-1.517,1.921-2.265
	c-0.131-0.707-0.454-1.251-1.067-1.671c1.801-0.359,4.289-0.88,4.397-2.084c-0.003-0.032-0.005-0.059-0.005-0.097
	c-0.329-1.38-2.951-1.167-3.808-1.23c-0.512-0.006-0.316-0.026-0.7,0.026c-0.233,0.043-0.527,0.062-0.553,0.437
	c-0.013,0.011,0.003,0.035,0.003,0.039c0.143,0.546,0.683,0.456,0.686,0.482c0.015,0,0.178-0.041,1.107-0.009
	c0.472,0.019,0.934,0.053,1.28,0.125c0.166,0.034,0.304,0.081,0.392,0.125c0.03,0.014,0.051,0.023,0.063,0.035
	c-0.153,0.208-1.178,0.604-2.117,0.85c-0.97,0.272-1.886,0.469-1.886,0.469c-0.03,0.006-0.051,0.012-0.068,0.015l0.035-3.081
	c0.532,0.093,1.015-0.256,1.015-0.256c0.839,0.524,1.633-0.082,1.633-0.082c1.06,0.549,1.728-0.053,1.728-0.053
	c1.285,0.574,2.076-0.246,2.076-0.246c1.484,0.272,2.029-0.96,2.029-0.96C16.281,5.623,14.031,2.935,13.466,2.467z M8.346,12.777
	c0.018-0.267-0.078-0.916,1.203-1.384l0.03,2.562c-0.246-0.156-0.505-0.316-0.761-0.478C8.474,13.265,8.313,12.973,8.346,12.777z
	 M11.123,13.478c-0.224,0.141-0.449,0.281-0.665,0.417l0.035-2.46c1.167,0.464,1.085,1.081,1.103,1.343
	C11.623,12.973,11.465,13.265,11.123,13.478z"/>
</svg>
