<?xml version="1.0" encoding="utf-8"?>
<!-- Generator: Adobe Illustrator 16.0.0, SVG Export Plug-In . SVG Version: 6.00 Build 0)  -->
<!DOCTYPE svg PUBLIC "-//W3C//DTD SVG 1.0//EN" "http://www.w3.org/TR/2001/REC-SVG-20010904/DTD/svg10.dtd">
<svg version="1.0" id="Layer_1" xmlns="http://www.w3.org/2000/svg" xmlns:xlink="http://www.w3.org/1999/xlink" x="0px" y="0px"
	 width="20px" height="20px" viewBox="0 0 20 20" enable-background="new 0 0 20 20" xml:space="preserve">
<g>
	<path fill-rule="evenodd" clip-rule="evenodd" d="M17.137,6.669c-0.787-1.133-1.551-2.282-2.304-3.438
		c-0.072-0.11-0.145-0.157-0.285-0.148c-0.588,0.036-1.177,0.066-1.766,0.076c-0.879,0.013-1.754,0.015-2.631-0.026
		C9.268,3.09,8.388,3.021,7.517,2.86C7.456,2.849,7.392,2.823,7.317,2.867c0.031,0.044,0.057,0.089,0.087,0.129
		c0.293,0.371,0.578,0.746,0.879,1.11c1.509,1.828,3.016,3.654,4.653,5.37c0.131,0.139,0.152,0.258,0.091,0.438
		c-0.623,1.854-1.092,3.746-1.448,5.666c-0.039,0.209-0.026,0.225,0.15,0.186c1.82-0.391,3.641-0.783,5.463-1.172
		c0.137-0.029,0.193-0.1,0.227-0.229c0.32-1.299,0.64-2.598,0.974-3.895c0.121-0.468,0.237-0.937,0.404-1.392
		c0-0.047,0-0.094,0-0.142C18.186,8.225,17.672,7.439,17.137,6.669z"/>
	<path fill-rule="evenodd" clip-rule="evenodd" d="M11.564,9.535c-0.649-0.582-1.232-1.233-1.806-1.891
		c-1.2-1.372-2.318-2.81-3.375-4.295C6.267,3.186,6.252,3.184,6.128,3.332C5.03,4.65,3.929,5.965,2.771,7.232
		C2.17,7.889,1.571,8.55,0.883,9.119C0.803,9.185,0.79,9.253,0.808,9.351c0.306,1.837,0.607,3.675,0.913,5.511
		c0.051,0.303,0.056,0.299,0.368,0.311c0.725,0.029,1.449,0.059,2.173,0.096c0.134,0.006,0.175-0.041,0.184-0.168
		c0.032-0.445,0.075-0.893,0.114-1.338c0.066-0.758,0.133-1.514,0.199-2.271c0.043-0.486,0.086-0.974,0.129-1.461
		C4.896,9.939,4.91,9.88,5.033,9.887c0.681,0.046,1.364,0.085,2.047,0.12c0.104,0.007,0.146,0.051,0.15,0.15
		c0.01,0.183,0.025,0.364,0.038,0.546c0.055,0.777,0.112,1.551,0.165,2.328c0.052,0.77,0.102,1.539,0.148,2.311
		c0.009,0.145,0.075,0.207,0.219,0.215c0.888,0.057,1.775,0.115,2.654,0.174c0.187,0.043,0.243-0.033,0.258-0.209
		c0.029-0.346,0.086-0.689,0.13-1.035c0.196-1.549,0.43-3.094,0.82-4.607C11.699,9.733,11.675,9.636,11.564,9.535z"/>
</g>
</svg>
