<?xml version="1.0" encoding="utf-8"?>
<!-- Generator: Adobe Illustrator 16.0.0, SVG Export Plug-In . SVG Version: 6.00 Build 0)  -->
<!DOCTYPE svg PUBLIC "-//W3C//DTD SVG 1.0//EN" "http://www.w3.org/TR/2001/REC-SVG-20010904/DTD/svg10.dtd">
<svg version="1.0" id="Layer_1" xmlns="http://www.w3.org/2000/svg" xmlns:xlink="http://www.w3.org/1999/xlink" x="0px" y="0px"
	 width="20px" height="20px" viewBox="0 0 20 20" enable-background="new 0 0 20 20" xml:space="preserve">
<g>
	<path fill="#231F20" d="M11.86,10.179c1.664-2.081,3.745-7.058,0.799-9.188C5.435-0.658,4.536,7.25,7.865,10.579
		c-1.764,1.449-2.164,4.228-3.995,5.593c0.733,1.266,0.933,3.063,2.397,3.596c0.899-2.28,2.098-4.295,3.596-5.992
		c2.031,1.563,2.498,4.694,4.794,5.992c0.051-1.399,1.133-1.78,1.199-3.197C14.707,14.258,13.009,12.492,11.86,10.179z M9.759,7.469
		C7.346,6.47,8.461,4.007,10.159,3.074c0.516,0.15,0.616,0.716,1.199,0.799C11.107,5.354,10.226,6.22,9.759,7.469z"/>
</g>
</svg>
