<?xml version="1.0" encoding="utf-8"?>
<!-- Generator: Adobe Illustrator 16.0.0, SVG Export Plug-In . SVG Version: 6.00 Build 0)  -->
<!DOCTYPE svg PUBLIC "-//W3C//DTD SVG 1.1//EN" "http://www.w3.org/Graphics/SVG/1.1/DTD/svg11.dtd">
<svg version="1.1" id="Layer_1" xmlns="http://www.w3.org/2000/svg" xmlns:xlink="http://www.w3.org/1999/xlink" x="0px" y="0px"
	 width="20px" height="20px" viewBox="0 0 20 20" enable-background="new 0 0 20 20" xml:space="preserve">
<path fill-rule="evenodd" clip-rule="evenodd" fill="#231F20" d="M6.452,7.929H3.541v7.497h3.792c0.962,0.137,1.831,0,1.831,0h5.623
	v-2.469l1.874-1.432v4.523c0,0.607-0.637,1.25-1.28,1.25H2.916c-0.6,0-1.25-0.637-1.25-1.23V7.304c0-0.606,0.637-1.25,1.281-1.25
	h6.404C8.458,6.454,7.37,7.066,6.452,7.929z M18.872,8.378l-6.585,4.479V9.946c-1.45,0-1.73,0.062-2.343,0.15
	c-3.662,0.424-4.63,2.761-4.63,2.761c0-5.672,6.973-6.266,6.973-6.266V3.917L18.872,8.378z"/>
</svg>
