<?xml version="1.0" encoding="utf-8"?>
<!-- Generator: Adobe Illustrator 16.0.0, SVG Export Plug-In . SVG Version: 6.00 Build 0)  -->
<!DOCTYPE svg PUBLIC "-//W3C//DTD SVG 1.0//EN" "http://www.w3.org/TR/2001/REC-SVG-20010904/DTD/svg10.dtd">
<svg version="1.0" id="Layer_1" xmlns="http://www.w3.org/2000/svg" xmlns:xlink="http://www.w3.org/1999/xlink" x="0px" y="0px"
	 width="20px" height="20px" viewBox="0 0 20 20" enable-background="new 0 0 20 20" xml:space="preserve">
<path fill="#231F20" d="M17.302,13.697c-2.031,0.008-5.107,0.09-6.748,1.035v-0.486V6.565c0-0.72,1.19-2.137,6.748-2.19V13.697z
	 M2.301,4.405c0.562,0.007,6.479,0.66,6.713,1.95c0.022,0.075,0.037,0.149,0.037,0.209v7.681v0.486
	c-1.643-0.945-4.718-1.027-6.75-1.035V4.405z M9.846,6.325c0-2.737-6.308-3.045-9.045-3.045v1.095v9.871v1.034h0.938h0.562v1.155
	c2.25,0,6.75-0.66,6.75,1.095h1.503c0-1.755,4.498-1.095,6.748-1.095V15.28h1.312h0.188v-12C16.065,3.28,9.846,3.588,9.846,6.325z"
	/>
</svg>
