<?xml version="1.0" encoding="utf-8"?>
<!-- Generator: Adobe Illustrator 16.0.0, SVG Export Plug-In . SVG Version: 6.00 Build 0)  -->
<!DOCTYPE svg PUBLIC "-//W3C//DTD SVG 1.0//EN" "http://www.w3.org/TR/2001/REC-SVG-20010904/DTD/svg10.dtd">
<svg version="1.0" id="Layer_1" xmlns="http://www.w3.org/2000/svg" xmlns:xlink="http://www.w3.org/1999/xlink" x="0px" y="0px"
	 width="20px" height="20px" viewBox="0 0 20 20" enable-background="new 0 0 20 20" xml:space="preserve">
<path fill="#231F20" d="M18.826,7.258c-0.075-0.252-0.287-0.439-0.546-0.483L15.903,6.37l2.733-2.561
	c0.192-0.18,0.266-0.453,0.189-0.705c-0.075-0.251-0.287-0.438-0.546-0.482L9.395,1.109C9.206,1.078,9.01,1.125,8.858,1.242
	L1.171,7.14c-0.21,0.161-0.31,0.428-0.257,0.688c0.053,0.259,0.248,0.466,0.504,0.532l2.675,0.692l-2.922,2.25
	c-0.21,0.16-0.31,0.425-0.257,0.684c0.053,0.257,0.248,0.466,0.504,0.53l2.675,0.693l-2.922,2.242
	c-0.21,0.16-0.31,0.426-0.257,0.686s0.249,0.467,0.504,0.533l9.322,2.412c0.057,0.014,0.115,0.021,0.174,0.021
	c0.173,0,0.341-0.066,0.471-0.188l7.251-6.797c0.192-0.179,0.266-0.45,0.189-0.7c-0.075-0.251-0.287-0.439-0.546-0.484l-2.377-0.408
	l2.733-2.565C18.829,7.783,18.902,7.51,18.826,7.258z M16.673,12.063l-5.954,5.583l-7.58-1.961l2.654-2.037l4.947,1.279
	c0.057,0.016,0.115,0.023,0.174,0.023c0.173,0,0.341-0.066,0.471-0.188l3.249-3.046L16.673,12.063z M10.719,13.492l-7.58-1.958
	l2.654-2.043l4.947,1.287c0.057,0.014,0.115,0.021,0.174,0.021c0.173,0,0.341-0.066,0.471-0.189l3.249-3.051l2.038,0.347
	L10.719,13.492z"/>
</svg>
