<?xml version="1.0" encoding="utf-8"?>
<!-- Generator: Adobe Illustrator 16.0.0, SVG Export Plug-In . SVG Version: 6.00 Build 0)  -->
<!DOCTYPE svg PUBLIC "-//W3C//DTD SVG 1.0//EN" "http://www.w3.org/TR/2001/REC-SVG-20010904/DTD/svg10.dtd">
<svg version="1.0" id="Layer_1" xmlns="http://www.w3.org/2000/svg" xmlns:xlink="http://www.w3.org/1999/xlink" x="0px" y="0px"
	 width="20px" height="20px" viewBox="0 0 20 20" enable-background="new 0 0 20 20" xml:space="preserve">
<path fill="#231F20" d="M10.104,0.801c-4.967,0-9,4.033-9,9c0,4.962,4.033,8.996,9,8.996c4.965,0,9-4.033,9-8.996
	C19.104,4.834,15.069,0.801,10.104,0.801z M10.26,16.521c-0.426,0.311-1.285,0.588-1.285,0.77v0.017
	c-1.121,0.106-0.777,0.187-1.097,0.212c-0.638-0.188-1.302-0.467-1.85-0.801c-0.008-0.01-0.032-0.01-0.041-0.018
	c-0.245-0.729-0.94-1.186-1.407-1.775c-0.236-0.244-0.286-0.515-0.261-0.802c0,0-0.017-0.017-0.008-0.017
	c0.024-0.466,0.188-0.957-0.147-1.391c-0.54-0.883-1.211-1.697-1.555-2.688C2.568,9.007,2.511,8.025,2.855,7.052
	c0.753-1.547,2.634-3.207,3.87-4.263c1.121,0.385-0.573,1.579,0.278,2.045c0.082,0,0.155,0.024,0.221,0.049
	c0.024-0.025,0.032-0.008,0.032,0.016c0.385,0.18,0.467,0.72-0.155,0.687C6.234,5.341,5.89,7.182,6.741,6.953
	c0.311-0.867,1.252-0.499,1.416,0.27C8.665,8,7.633,7.992,7.281,8.327C7.633,8.975,6.65,8.638,6.284,8.949
	c-0.704,0.157-0.926,1.228-1.539,1.261c-0.024-1.121-1.89-0.745-1.579,0.278c0.393,0.312,0.925,0.63,0.843,1.28
	c-0.025,1.392,1.676,0.933,2.437,1.67c0.926,0.408,1.531,1.252,2.35,1.8C9.506,14.991,10.967,15.672,10.26,16.521z M7.96,5.161
	c0.048-0.017,0.082-0.033,0.113-0.033c0.549-0.033,0.443,1.171-0.016,1.358C7.666,6.118,8.19,5.586,7.96,5.161z M8.172,8.589
	c-0.27-0.188-0.237-0.27-0.114-0.294c0.221-0.041,0.671,0.124,0.245,0.376C8.443,8.533,8.213,8.581,8.172,8.589z M6.25,9.031H6.234
	c-0.017,0-0.024-0.024-0.032-0.033c0.072-0.032,0.122-0.032,0.147-0.032C6.406,8.975,6.332,9.056,6.25,9.031z M5.218,11.711
	c-0.13,0.049-0.277-0.048-0.358-0.154c-0.295-0.178-0.287-0.285-0.181-0.317c0.041-0.008,0.082-0.008,0.131,0
	c0.041,0,0.106,0.016,0.147,0.032v0.017C5.137,11.346,5.301,11.484,5.218,11.711z M9.023,4.065c0.033,0,0.066-0.016,0.099-0.016
	c0.041,0,0.065,0.008,0.099,0.016c0.196,0,0.131,0.22,0,0.278C8.762,4.785,8.639,4.146,9.023,4.065z M9.482,6.994
	C8.623,6.748,9.531,5.808,9.163,5.341C8.639,4.81,9.205,4.27,9.76,4.196c0.336-0.042,0.672,0.098,0.771,0.491
	C10.761,5.619,9.826,6.225,9.482,6.994z M12.836,7.322c-0.196-0.18-0.181-0.262-0.073-0.27c0.18-0.009,0.581,0.18,0.548,0.433
	C13.13,7.771,12.647,7.747,12.836,7.322z M16.239,15.025c0-0.051,0.017-0.116,0.041-0.215c0.557-0.687,0.45-2.027-0.688-1.881
	c-0.597,0.467-1.424,1.063-2.144,0.377c-0.752-0.68-0.4-1.8,0.016-2.557c0.427-0.614,0.565-1.522,1.311-1.834
	c0.735,0.164,1.644,0.115,1.906-0.785c0.237-0.4,0.105-0.531-0.106-0.637l-0.05-0.009c-0.245-0.107-0.556-0.188-0.589-0.548
	c0.222-0.376-0.245-1.146-0.426-0.45c0.377,0.425,0.467,1.718-0.441,1.235c0.319,0.524-1.17,0.188-0.883,0.917
	c0.236,0.793-1.351,1.235-0.9,0.229c0.262-0.744-0.114-1.857,0.54-2.332c0-0.024,0.058-0.123,0.032-0.016l0.065-0.049
	c0.573-0.402-0.729-1.587-0.653-0.851c0.563,0.294,0.253,0.884-0.288,0.589c-0.58-0.287-0.784-1.857,0.008-1.75
	c0.606,0.082,0.033-0.557-0.236-0.868c-0.032,0.147-0.082-0.025-0.057-0.041l-0.05-0.058c0.082-0.94-1.492-0.115-1.755-0.957
	c-1.001-0.5-2.13-0.524-3.235-0.442c0.416-0.14,0.851-0.212,1.3-0.278l0.132-0.017C9.212,1.783,9.335,1.773,9.45,1.75
	c0.212-0.017,0.434-0.033,0.654-0.033c3.19,0,5.956,1.857,7.264,4.556c0.009,0,0,0.009,0,0.017c0.018,0.098,0.025,0.188,0.018,0.294
	c0.073,0.058,0.146,0.147,0.229,0.245c0.188,0.459,0.318,0.949,0.409,1.449c-0.074,0.073-0.181,0.123-0.336,0.13
	c-0.842-0.654-0.024,0.728,0.434,0.475c0.041,0.303,0.066,0.605,0.066,0.917C18.188,11.793,17.451,13.609,16.239,15.025z"/>
</svg>
