<?xml version="1.0" encoding="utf-8"?>
<!-- Generator: Adobe Illustrator 16.0.0, SVG Export Plug-In . SVG Version: 6.00 Build 0)  -->
<!DOCTYPE svg PUBLIC "-//W3C//DTD SVG 1.1//EN" "http://www.w3.org/Graphics/SVG/1.1/DTD/svg11.dtd">
<svg version="1.1" id="Layer_1" xmlns="http://www.w3.org/2000/svg" xmlns:xlink="http://www.w3.org/1999/xlink" x="0px" y="0px"
	 width="35.339px" height="30.953px" viewBox="0 0 35.339 30.953" enable-background="new 0 0 35.339 30.953" xml:space="preserve">
<g id="Recovery">
</g>
<path d="M17.058,23.598v-6.851c-2.534-0.609-4.391-1.535-5.576-2.77c-1.183-1.242-1.773-2.743-1.773-4.507
	c0-1.791,0.669-3.292,2.007-4.507c1.338-1.215,3.119-1.917,5.342-2.099V1.246h2.813v1.619c2.056,0.202,3.691,0.796,4.905,1.771
	c1.216,0.976,1.992,2.282,2.329,3.917l-4.908,0.542c-0.298-1.288-1.073-2.161-2.326-2.618v6.393
	c3.103,0.708,5.218,1.627,6.341,2.758c1.125,1.128,1.689,2.575,1.689,4.34c0,1.977-0.709,3.642-2.125,4.991
	c-1.415,1.352-3.385,2.179-5.905,2.483v3.063h-2.813v-2.98c-2.236-0.228-4.052-0.934-5.45-2.11
	c-1.396-1.177-2.288-2.838-2.674-4.986l5.061-0.461c0.206,0.872,0.595,1.627,1.166,2.26C15.728,22.862,16.361,23.32,17.058,23.598z
	 M17.058,6.427c-0.762,0.217-1.372,0.59-1.821,1.113c-0.453,0.522-0.678,1.101-0.678,1.733c0,0.579,0.206,1.116,0.619,1.611
	c0.414,0.499,1.041,0.896,1.88,1.2V6.427z M19.872,23.831c0.97-0.153,1.759-0.534,2.364-1.136c0.609-0.609,0.912-1.318,0.912-2.138
	c0-0.728-0.255-1.36-0.764-1.89c-0.513-0.525-1.35-0.933-2.513-1.216V23.831z"/>
</svg>
