<?xml version="1.0" encoding="utf-8"?>
<!-- Generator: Adobe Illustrator 16.0.3, SVG Export Plug-In . SVG Version: 6.00 Build 0)  -->
<!DOCTYPE svg PUBLIC "-//W3C//DTD SVG 1.1//EN" "http://www.w3.org/Graphics/SVG/1.1/DTD/svg11.dtd">
<svg version="1.1" id="Layer_1" xmlns="http://www.w3.org/2000/svg" xmlns:xlink="http://www.w3.org/1999/xlink" x="0px" y="0px"
	 width="20px" height="20px" viewBox="0 0 20 20" enable-background="new 0 0 20 20" xml:space="preserve">
<g>
	<polygon fill="#F58020" points="10.511,17.097 10,17.362 9.488,17.097 5.043,14.793 2.5,16.111 10,20 17.5,16.111 14.956,14.793 	
		"/>
	<polygon fill="#F58020" points="10.511,13.208 10,13.474 9.488,13.208 5.043,10.904 2.5,12.223 10,16.111 17.5,12.223 
		14.956,10.904 	"/>
	<path fill="#F58020" d="M10,0C8.466,0,7.222,1.244,7.222,2.778C7.222,4.313,10,8.334,10,8.334s2.778-4.021,2.778-5.556
		C12.778,1.244,11.534,0,10,0z M10,3.889c-0.613,0-1.111-0.498-1.111-1.111c0-0.614,0.497-1.111,1.111-1.111
		c0.613,0,1.111,0.497,1.111,1.111C11.111,3.391,10.613,3.889,10,3.889z"/>
	<path fill="#F58020" d="M12.549,5.766c-0.266,0.498-0.548,0.986-0.815,1.424c0.798,0.25,1.322,0.668,1.322,1.143
		c0,0.767-1.368,1.389-3.056,1.389S6.944,9.101,6.944,8.333c0-0.474,0.523-0.892,1.321-1.143c-0.268-0.438-0.55-0.926-0.814-1.424
		L2.5,8.334l7.5,3.889l7.5-3.889L12.549,5.766z"/>
</g>
</svg>
