<?xml version="1.0" encoding="utf-8"?>
<!-- Generator: Adobe Illustrator 16.0.3, SVG Export Plug-In . SVG Version: 6.00 Build 0)  -->
<!DOCTYPE svg PUBLIC "-//W3C//DTD SVG 1.1//EN" "http://www.w3.org/Graphics/SVG/1.1/DTD/svg11.dtd">
<svg version="1.1" id="Layer_1" xmlns="http://www.w3.org/2000/svg" xmlns:xlink="http://www.w3.org/1999/xlink" x="0px" y="0px"
	 width="20px" height="20px" viewBox="0 0 20 20" enable-background="new 0 0 20 20" xml:space="preserve">
<path fill="#2CA048" d="M11.124,12.83c0,0.621-0.504,1.125-1.123,1.125c-0.621,0-1.125-0.504-1.125-1.125
	c0-0.619,0.504-1.123,1.125-1.123C10.62,11.707,11.124,12.211,11.124,12.83z M11.606,15.789c0-0.887-0.721-1.605-1.605-1.605
	c-0.889,0-1.607,0.719-1.607,1.605l0,0v2.361h3.213V15.789L11.606,15.789z M14.413,11.707c-0.621,0-1.125,0.504-1.125,1.123
	c0,0.621,0.504,1.125,1.125,1.125c0.619,0,1.123-0.504,1.123-1.125C15.536,12.211,15.032,11.707,14.413,11.707z M16.019,15.789
	c0-0.887-0.721-1.605-1.605-1.605c-0.887,0-1.605,0.719-1.605,1.605l0,0v2.361h3.211V15.789L16.019,15.789z M5.589,11.707
	c-0.621,0-1.125,0.504-1.125,1.123c0,0.621,0.504,1.125,1.125,1.125c0.619,0,1.121-0.504,1.121-1.125
	C6.71,12.211,6.208,11.707,5.589,11.707z M7.192,15.789c0-0.887-0.719-1.605-1.604-1.605c-0.889,0-1.607,0.719-1.607,1.605l0,0
	v2.361h3.211V15.789L7.192,15.789z M10.001,1.94c-0.621,0-1.125,0.504-1.125,1.125s0.504,1.125,1.125,1.125s1.123-0.504,1.123-1.125
	S10.622,1.94,10.001,1.94z M11.606,5.971c0-0.887-0.719-1.606-1.605-1.606c-0.889,0-1.607,0.72-1.607,1.606l0,0v2.362h3.213V5.971
	L11.606,5.971z M10.101,10.183V9.369H9.899v0.813H5.485v1.167h0.201v-0.966h4.213v0.966h0.201v-0.966h4.211v0.966h0.201v-1.167
	H10.101z"/>
</svg>
