<?xml version="1.0" encoding="utf-8"?>
<!-- Generator: Adobe Illustrator 16.0.3, SVG Export Plug-In . SVG Version: 6.00 Build 0)  -->
<!DOCTYPE svg PUBLIC "-//W3C//DTD SVG 1.1//EN" "http://www.w3.org/Graphics/SVG/1.1/DTD/svg11.dtd">
<svg version="1.1" id="Layer_1" xmlns="http://www.w3.org/2000/svg" xmlns:xlink="http://www.w3.org/1999/xlink" x="0px" y="0px"
	 width="20px" height="20px" viewBox="0 0 20 20" enable-background="new 0 0 20 20" xml:space="preserve">
<path fill="#407CCA" d="M10.578,6.547c0.133,0.131,0.133,0.346,0,0.479L8.481,9.12C8.351,9.253,8.135,9.253,8.004,9.124
	c-0.133-0.137-0.132-0.35-0.002-0.483L10.1,6.547C10.232,6.414,10.445,6.414,10.578,6.547z M11.574,12.691
	c0.133,0.133,0.347,0.133,0.479,0.002l2.096-2.097c0.134-0.133,0.133-0.348,0-0.48c-0.131-0.131-0.346-0.131-0.479,0l-2.096,2.096
	C11.441,12.346,11.441,12.561,11.574,12.691z M16.6,6.618V16.63H5.716v-0.161L4.751,17.5l-1.556-1.558l2.521-2.358V2.5h6.918
	L16.6,6.618z M12.819,6.283h1.868l-1.868-1.939V6.283z M15.455,7.142H11.96V3.646H6.861v8.866l2.559-2.394L8.652,9.351l2.154-2.156
	L13.5,9.89l-2.152,2.154l-0.771-0.771l-3.715,3.971v0.241h8.594V7.142z"/>
</svg>
