<?xml version="1.0" encoding="utf-8"?>
<!-- Generator: Adobe Illustrator 16.0.3, SVG Export Plug-In . SVG Version: 6.00 Build 0)  -->
<!DOCTYPE svg PUBLIC "-//W3C//DTD SVG 1.1//EN" "http://www.w3.org/Graphics/SVG/1.1/DTD/svg11.dtd">
<svg version="1.1" id="Layer_1" xmlns="http://www.w3.org/2000/svg" xmlns:xlink="http://www.w3.org/1999/xlink" x="0px" y="0px"
	 width="20px" height="20px" viewBox="0 0 20 20" enable-background="new 0 0 20 20" xml:space="preserve">
<path fill="#D62828" d="M7.583,9.767C6.09,9.148,4.78,9.093,3.577,9.593L3.502,9.41c1.254-0.52,2.615-0.462,4.156,0.175L7.583,9.767
	z M7.659,10.778c-1.539-0.636-2.902-0.693-4.156-0.175l0.074,0.182c1.207-0.498,2.516-0.441,4.006,0.175L7.659,10.778z M7.659,8.392
	C6.12,7.756,4.756,7.698,3.502,8.216l0.074,0.183c1.207-0.499,2.516-0.442,4.006,0.175L7.659,8.392z M14.297,10.746l0.598-0.599
	v4.526H9.778c-0.178,0.151-0.594,0.259-1.08,0.259s-0.902-0.107-1.078-0.259H2.5V7.694c0-0.618,0-1.022,0-1.045
	c3.369-1.463,5.83-0.028,6.258,0.386c0.299-0.276,2.474-1.558,5.308-0.69l-0.57,0.57c-0.395-0.114-0.832-0.185-1.299-0.185
	c-1.691,0-3.064,0.561-3.064,1.599v5.845c0-0.274,2.394-1.881,5.164-0.127V10.746z M8.301,8.329c0-1.038-1.373-1.599-3.064-1.599
	c-0.813,0-1.551,0.194-2.098,0.511v6.806c2.766-1.754,5.162-0.147,5.162,0.127V8.329z M9.522,9.585l0.074,0.182
	c0.588-0.244,1.193-0.376,1.789-0.446l0.086-0.207C10.823,9.179,10.163,9.32,9.522,9.585z M9.522,10.778l0.074,0.182
	c0.42-0.173,0.848-0.292,1.277-0.377l0.084-0.209C10.477,10.461,9.993,10.584,9.522,10.778z M9.522,8.392l0.074,0.182
	c0.902-0.373,1.843-0.521,2.726-0.483l0.186-0.186C11.547,7.836,10.51,7.982,9.522,8.392z M17.289,7.131l-3.635,3.634l-0.934,0.382
	c-0.215,0.085-0.516,0.209-0.773,0.313c-0.07,0.029-0.154,0.063-0.211,0.086l-0.443,0.182c-0.27,0.108-0.402-0.022-0.291-0.294
	l0.178-0.442c0.025-0.058,0.059-0.14,0.088-0.211c0.105-0.257,0.227-0.561,0.313-0.772l0.383-0.935l3.633-3.634
	c0.223-0.224,0.533-0.279,0.688-0.123l1.129,1.129C17.566,6.6,17.512,6.908,17.289,7.131z M13.115,10.656L12.07,9.61l-0.207,0.512
	l-0.121,0.296l-0.117,0.289l0.395,0.396l0.588-0.239L13.115,10.656z"/>
</svg>
