<?xml version="1.0" encoding="utf-8"?>
<!-- Generator: Adobe Illustrator 16.0.0, SVG Export Plug-In . SVG Version: 6.00 Build 0)  -->
<!DOCTYPE svg PUBLIC "-//W3C//DTD SVG 1.0//EN" "http://www.w3.org/TR/2001/REC-SVG-20010904/DTD/svg10.dtd">
<svg version="1.0" id="Layer_1" xmlns="http://www.w3.org/2000/svg" xmlns:xlink="http://www.w3.org/1999/xlink" x="0px" y="0px"
	 width="20px" height="20px" viewBox="0 0 20 20" enable-background="new 0 0 20 20" xml:space="preserve">
<path fill="#231F20" d="M8.513,9.031c0.084,0.087,0.123,0.187,0.123,0.304c0,0.132-0.049,0.247-0.146,0.345
	C8.392,9.775,8.266,9.837,8.109,9.862V8.833C8.294,8.88,8.43,8.946,8.513,9.031z M7.25,7.517c0,0.092,0.036,0.179,0.102,0.258
	C7.419,7.856,7.52,7.919,7.656,7.97V7.057C7.533,7.092,7.433,7.153,7.362,7.236C7.288,7.322,7.25,7.413,7.25,7.517z M10.08,1.017
	C8.906,0.886,8.495,1.608,7.909,1.636C7.317,1.608,6.91,0.886,5.734,1.017c-1.2,0.134-1.931,1.154-1.931,1.154l1.465,1.363h5.276
	l1.465-1.363C12.01,2.171,11.281,1.151,10.08,1.017z M6.128,12.147h-1.43c-1.464,0-1.782-1.214-1.782-1.214
	C1.958,6.705,4.874,4.412,4.874,4.412h6.067c0,0,1.15,0.906,1.768,2.629c-0.406,0.47-0.779,1.024-1.091,1.656
	c-0.293,0.596-0.499,1.196-0.628,1.77C9.51,10.516,7.229,10.78,6.128,12.147z M7.656,8.602v1.104
	c-0.111-0.045-0.215-0.12-0.307-0.221C7.257,9.382,7.196,9.26,7.162,9.122L6.346,9.195C6.408,9.54,6.551,9.809,6.777,9.999
	c0.225,0.189,0.518,0.302,0.879,0.34v0.479h0.453v-0.492c0.405-0.051,0.723-0.185,0.951-0.401C9.29,9.707,9.403,9.438,9.403,9.122
	c0-0.286-0.091-0.52-0.273-0.701c-0.179-0.183-0.521-0.33-1.021-0.445v-1.03C8.312,7.019,8.436,7.16,8.484,7.367L9.275,7.28
	C9.221,7.018,9.096,6.806,8.9,6.649C8.704,6.493,8.44,6.397,8.109,6.363V6.102H7.656v0.261C7.296,6.392,7.009,6.506,6.793,6.703
	C6.578,6.897,6.471,7.14,6.471,7.427c0,0.286,0.094,0.527,0.286,0.728C6.948,8.354,7.247,8.502,7.656,8.602z M15.938,11.757
	c-0.116,0.185-0.241,0.353-0.366,0.522c0.661,0.277,1.072,0.627,1.072,1.012c0,0.891-2.11,1.613-4.715,1.613
	c-2.604,0-4.715-0.723-4.715-1.613c0-0.764,1.555-1.397,3.639-1.565c0-0.179,0.003-0.356,0.021-0.547
	c-2.655,0.124-4.678,0.8-4.678,2.894c0,2.35,2.545,4.924,5.68,4.924c3.136,0,5.679-2.574,5.679-4.924
	C17.555,12.916,16.936,12.194,15.938,11.757z M11.706,14.529l0.753-1.207l0,0c0.061-0.119-0.148-0.092-0.338-0.189l0,0
	c-0.191-0.096-0.29-0.279-0.35-0.162L11.24,14.33C11.176,14.461,11.565,14.805,11.706,14.529z M12.102,11.289
	c-0.727-0.904-0.31-1.534-0.31-1.534c-0.238,0.175-1.036,2.362-0.057,2.862C12.176,12.84,12.916,12.301,12.102,11.289z
	 M12.845,9.833c-0.727-0.905-0.307-1.535-0.307-1.535c-0.24,0.176-1.041,2.366-0.059,2.867C12.919,11.39,13.659,10.852,12.845,9.833
	z M13.565,8.42c-0.727-0.903-0.308-1.534-0.308-1.534C13.02,7.059,12.219,9.249,13.2,9.753C13.64,9.975,14.378,9.438,13.565,8.42z
	 M12.791,13.156c0.981,0.5,2.285-1.432,2.289-1.726c0,0-0.267,0.702-1.425,0.648C12.354,12.016,12.353,12.932,12.791,13.156z
	 M13.534,11.699c0.98,0.502,2.287-1.429,2.29-1.726c0,0-0.268,0.709-1.425,0.653C13.098,10.566,13.095,11.478,13.534,11.699z
	 M14.257,10.289c0.98,0.501,2.286-1.432,2.286-1.728c0,0-0.264,0.711-1.421,0.652C13.817,9.151,13.816,10.063,14.257,10.289z
	 M14.355,8.961c1.042,0.531,1.074-2.249,1.074-2.249C15.191,6.855,13.314,8.43,14.355,8.961z"/>
</svg>
