<?xml version="1.0" encoding="utf-8"?>
<!-- Generator: Adobe Illustrator 16.0.0, SVG Export Plug-In . SVG Version: 6.00 Build 0)  -->
<!DOCTYPE svg PUBLIC "-//W3C//DTD SVG 1.0//EN" "http://www.w3.org/TR/2001/REC-SVG-20010904/DTD/svg10.dtd">
<svg version="1.0" id="Layer_1" xmlns="http://www.w3.org/2000/svg" xmlns:xlink="http://www.w3.org/1999/xlink" x="0px" y="0px"
	 width="20px" height="20px" viewBox="0 0 20 20" enable-background="new 0 0 20 20" xml:space="preserve">
<g>
	<path fill="#231F20" d="M17.227,6.437c-0.562,0-1.021,0.435-1.021,0.969c0,0.535,0.459,0.97,1.021,0.97s1.02-0.435,1.02-0.97
		C18.246,6.872,17.789,6.437,17.227,6.437z M2.576,6.437c-0.563,0-1.02,0.435-1.02,0.969c0,0.535,0.457,0.97,1.02,0.97
		c0.562,0,1.019-0.435,1.019-0.97C3.595,6.872,3.138,6.437,2.576,6.437z M14.195,4.674c-0.838,0-1.516,0.648-1.516,1.442
		c0,0.795,0.678,1.443,1.516,1.443c0.836,0,1.518-0.647,1.518-1.443C15.713,5.322,15.031,4.674,14.195,4.674z M18.9,13.447h-1.727
		v-3.026c0-0.52-0.16-1.002-0.42-1.423c0.152-0.043,0.309-0.071,0.473-0.071c0.922,0,1.674,0.715,1.674,1.594V13.447z M5.607,4.674
		c-0.836,0-1.518,0.648-1.518,1.442c0,0.795,0.681,1.443,1.518,1.443c0.835,0,1.516-0.647,1.516-1.443
		C7.123,5.322,6.442,4.674,5.607,4.674z M2.576,8.927c0.165,0,0.318,0.028,0.47,0.071c-0.259,0.42-0.417,0.903-0.417,1.423v3.026
		H0.901v-2.926C0.901,9.642,1.653,8.927,2.576,8.927z M9.9,1.789c-1.236,0-2.242,0.957-2.242,2.134c0,1.176,1.005,2.135,2.242,2.135
		c1.24,0,2.242-0.958,2.242-2.135C12.143,2.746,11.141,1.789,9.9,1.789z M16.619,14.573h-2.648V9.971
		c0-0.634-0.176-1.222-0.459-1.751c0.217-0.061,0.443-0.105,0.684-0.105c1.336,0,2.424,1.035,2.424,2.306V14.573z M5.829,9.971
		v4.602H3.185v-4.152c0-1.271,1.085-2.306,2.423-2.306c0.238,0,0.464,0.044,0.681,0.105C6.003,8.749,5.829,9.337,5.829,9.971z
		 M6.384,15.906h7.032V9.971c0-1.847-1.578-3.347-3.516-3.347c-1.941,0-3.516,1.5-3.516,3.347V15.906z"/>
</g>
</svg>
