<?xml version="1.0" encoding="utf-8"?>
<!-- Generator: Adobe Illustrator 16.0.3, SVG Export Plug-In . SVG Version: 6.00 Build 0)  -->
<!DOCTYPE svg PUBLIC "-//W3C//DTD SVG 1.1//EN" "http://www.w3.org/Graphics/SVG/1.1/DTD/svg11.dtd">
<svg version="1.1" id="Layer_1" xmlns="http://www.w3.org/2000/svg" xmlns:xlink="http://www.w3.org/1999/xlink" x="0px" y="0px"
	 width="20px" height="20px" viewBox="0 0 20 20" enable-background="new 0 0 20 20" xml:space="preserve">
<path fill="#407CCA" d="M315.14,294.493c0,0.949-0.77,1.717-1.715,1.717c-0.951,0-1.719-0.768-1.719-1.717
	c0-0.947,0.768-1.717,1.719-1.717C314.37,292.776,315.14,293.546,315.14,294.493z M322.655,294.493c0,0.949,0.77,1.717,1.715,1.717
	c0.951,0,1.721-0.768,1.721-1.717c0-0.947-0.77-1.717-1.721-1.717C323.425,292.776,322.655,293.546,322.655,294.493z
	 M317.948,300.394c-0.039-0.365,0.102-0.703,0.34-0.949c-1.453-0.277-2.049-0.986-2.566-1.627c-0.252-0.314-0.492-0.613-0.811-0.824
	c-0.01-0.006-0.021-0.006-0.029-0.014c-0.271-0.225-0.615-0.367-0.994-0.367h-0.928c-0.859,0-1.563,0.701-1.563,1.561v4.33h4.053
	v-2.799c0.592,0.518,1.428,1.01,2.713,1.225C318.056,300.772,317.972,300.597,317.948,300.394z M324.837,296.612h-0.93
	c-0.377,0-0.723,0.143-0.992,0.367c-0.01,0.008-0.021,0.008-0.029,0.014c-0.318,0.211-0.559,0.508-0.813,0.824
	c-0.568,0.703-1.213,1.506-3.016,1.705c-0.408,0.047-0.701,0.414-0.656,0.822c0.041,0.381,0.363,0.662,0.738,0.662
	c0.027,0,0.055-0.002,0.084-0.004c1.527-0.17,2.473-0.713,3.123-1.289v2.789h4.051v-4.33
	C326.397,297.313,325.694,296.612,324.837,296.612z"/>
<path fill="#8C574C" d="M6.242,6.854c0,0.949-0.77,1.717-1.715,1.717c-0.951,0-1.719-0.768-1.719-1.717
	c0-0.947,0.768-1.717,1.719-1.717C5.473,5.137,6.242,5.906,6.242,6.854z M13.758,6.854c0,0.949,0.77,1.717,1.715,1.717
	c0.951,0,1.721-0.768,1.721-1.717c0-0.947-0.77-1.717-1.721-1.717C14.527,5.137,13.758,5.906,13.758,6.854z M9.051,12.754
	c-0.039-0.365,0.102-0.703,0.34-0.949c-1.453-0.277-2.049-0.986-2.566-1.627C6.572,9.863,6.332,9.564,6.014,9.354
	C6.004,9.348,5.992,9.348,5.984,9.34C5.713,9.115,5.369,8.973,4.99,8.973H4.063c-0.859,0-1.563,0.701-1.563,1.561v4.33h4.053v-2.799
	c0.592,0.518,1.428,1.01,2.713,1.225C9.158,13.133,9.074,12.957,9.051,12.754z M15.939,8.973h-0.93
	c-0.377,0-0.723,0.143-0.992,0.367c-0.01,0.008-0.021,0.008-0.029,0.014c-0.318,0.211-0.559,0.508-0.813,0.824
	c-0.568,0.703-1.213,1.506-3.016,1.705c-0.408,0.047-0.701,0.414-0.656,0.822c0.041,0.381,0.363,0.662,0.738,0.662
	c0.027,0,0.055-0.002,0.084-0.004c1.527-0.17,2.473-0.713,3.123-1.289v2.789H17.5v-4.33C17.5,9.674,16.797,8.973,15.939,8.973z"/>
</svg>
