<?xml version="1.0" encoding="utf-8"?>
<!-- Generator: Adobe Illustrator 16.0.0, SVG Export Plug-In . SVG Version: 6.00 Build 0)  -->
<!DOCTYPE svg PUBLIC "-//W3C//DTD SVG 1.1//EN" "http://www.w3.org/Graphics/SVG/1.1/DTD/svg11.dtd">
<svg version="1.1" id="Layer_1" xmlns="http://www.w3.org/2000/svg" xmlns:xlink="http://www.w3.org/1999/xlink" x="0px" y="0px"
	 width="35.339px" height="30.953px" viewBox="0 0 35.339 30.953" enable-background="new 0 0 35.339 30.953" xml:space="preserve">
<path fill="#010101" d="M10.144,3.872c0,1.331-1.081,2.409-2.412,2.409S5.319,5.203,5.319,3.872c0-1.33,1.082-2.407,2.413-2.407
	C9.063,1.464,10.144,2.542,10.144,3.872z M7.985,20.373l0.522,8.893c0,0.307,0.251,0.564,0.564,0.564
	c0.312,0,0.564-0.258,0.564-0.564l0.483-8.893h1.569l-1.621-9.964l3.273,6.515c0.12,0.289,0.449,0.425,0.74,0.303
	c0.287-0.122,0.422-0.451,0.299-0.743c0,0-2.395-6.484-2.991-7.692c-0.593-1.209-1.174-1.944-3.425-1.944h-0.46
	c-2.246,0-2.832,0.734-3.423,1.944c-0.589,1.208-2.99,7.692-2.99,7.692c-0.125,0.292,0.008,0.622,0.294,0.743
	c0.287,0.123,0.622-0.014,0.745-0.303l3.273-6.515l-1.63,9.964h1.57l0.489,8.893c0,0.307,0.255,0.564,0.564,0.564
	c0.317,0,0.57-0.258,0.57-0.564l0.486-8.893H7.985z M28.647,1.46c-1.33,0-2.412,1.075-2.412,2.409c0,1.331,1.082,2.407,2.412,2.407
	c1.332,0,2.408-1.077,2.408-2.407C31.055,2.535,29.979,1.46,28.647,1.46z M31.145,15.64l0.162-5.239l2.943,6.519
	c0.121,0.285,0.455,0.426,0.74,0.299c0.291-0.122,0.428-0.451,0.303-0.742c0,0-2.07-6.485-2.664-7.692
	c-0.592-1.209-1.506-1.941-3.752-1.941h-0.461c-2.252,0-3.164,0.732-3.756,1.941C24.071,9.991,22,16.476,22,16.476
	c-0.125,0.291,0.008,0.62,0.299,0.742c0.285,0.127,0.621-0.014,0.736-0.299l2.947-6.519l0.162,5.239l-0.467,13.176
	c-0.029,0.521,0.359,0.975,0.877,1.008c0.023,0.006,0.051,0.006,0.068,0.006c0.496,0,0.912-0.381,0.949-0.881l1.07-10.851
	l1.078,10.851c0.029,0.5,0.449,0.881,0.941,0.881c0.02,0,0.043,0,0.07-0.006c0.52-0.033,0.908-0.486,0.875-1.008L31.141,15.64
	H31.145z"/>
<path d="M21.514,18.77c-0.627,0-1.131,0.506-1.131,1.129c0,0.625,0.504,1.13,1.131,1.13c0.621,0,1.127-0.505,1.127-1.13
	C22.641,19.276,22.135,18.77,21.514,18.77z M23.557,25.204c-0.129,0.055-0.277-0.009-0.332-0.134L22.7,22.872l-0.072,2.336h-0.002
	l0.209,3.862c0.014,0.232-0.162,0.433-0.393,0.45c-0.012,0.001-0.021,0.001-0.031,0.001c-0.219,0-0.406-0.169-0.418-0.392
	l-0.482-3.645l-0.477,3.645c-0.018,0.223-0.203,0.392-0.422,0.392c-0.01,0-0.02,0-0.031-0.001c-0.23-0.018-0.406-0.218-0.391-0.45
	l0.207-3.862l-0.072-2.336c0,0-1.403,1.413-1.491,1.452c-0.152,0.064-0.328-0.008-0.395-0.16l-1.139-2.48l0.864,4.189H17.33
	l-0.257,3.43c0,0.165-0.137,0.301-0.299,0.301c-0.169,0-0.302-0.136-0.302-0.301l-0.258-3.43h-0.151h-0.151l-0.258,3.43
	c0,0.165-0.132,0.301-0.302,0.301c-0.165,0-0.299-0.136-0.299-0.301l-0.257-3.43h-0.834l0.864-4.189l-1.14,2.48
	c-0.064,0.152-0.242,0.225-0.395,0.16c-0.151-0.065-0.223-0.242-0.156-0.396c0,0,0.678-2.462,0.99-3.104
	c0.312-0.639,0.625-1.029,1.816-1.029h0.123h0.123c1.189,0,1.503,0.391,1.815,1.029c0.229,0.469,0.651,1.906,0.862,2.647
	c0.301-0.414,0.714-0.997,0.87-1.322c0.264-0.542,0.672-0.867,1.676-0.867h0.205c1.006,0,1.41,0.325,1.676,0.867
	c0.264,0.538,0.402,2.722,0.402,2.722C23.747,25.002,23.686,25.148,23.557,25.204z M17.983,18.94c0,0.324-0.274,0.586-0.615,0.586
	c-0.238,0-0.437-0.131-0.54-0.32c-0.232,0.191-0.517,0.32-0.841,0.32c-0.326,0-0.609-0.129-0.842-0.32
	c-0.103,0.189-0.302,0.32-0.54,0.32c-0.341,0-0.615-0.262-0.615-0.586c0-0.322,0.274-0.587,0.615-0.587
	c0.026,0,0.05,0.013,0.075,0.016c-0.008-0.062-0.037-0.118-0.037-0.183c0-0.741,0.601-1.343,1.344-1.343
	c0.741,0,1.343,0.602,1.343,1.343c0,0.064-0.028,0.121-0.037,0.183c0.025-0.003,0.048-0.016,0.075-0.016
	C17.708,18.353,17.983,18.618,17.983,18.94z"/>
</svg>
