<?xml version="1.0" encoding="utf-8"?>
<!-- Generator: Adobe Illustrator 16.0.3, SVG Export Plug-In . SVG Version: 6.00 Build 0)  -->
<!DOCTYPE svg PUBLIC "-//W3C//DTD SVG 1.1//EN" "http://www.w3.org/Graphics/SVG/1.1/DTD/svg11.dtd">
<svg version="1.1" id="Layer_1" xmlns="http://www.w3.org/2000/svg" xmlns:xlink="http://www.w3.org/1999/xlink" x="0px" y="0px"
	 width="20px" height="20px" viewBox="0 0 20 20" enable-background="new 0 0 20 20" xml:space="preserve">
<g>
	<path fill="#CBA7A0" d="M1.749,6.973l1.029,1.03L4.641,6.14c0.051-0.051,0.082-0.12,0.082-0.197c0-0.153-0.125-0.278-0.278-0.278
		c-0.077,0-0.146,0.031-0.196,0.082l-1.471,1.47L2.142,6.58c-0.05-0.05-0.121-0.082-0.197-0.082c-0.153,0-0.278,0.125-0.278,0.278
		C1.667,6.853,1.698,6.922,1.749,6.973z"/>
	<path fill="#CBA7A0" d="M4.444,8.443c-0.077,0-0.146,0.031-0.197,0.081l-1.47,1.47L2.141,9.357c-0.05-0.05-0.12-0.081-0.196-0.081
		c-0.153,0-0.278,0.124-0.278,0.278c0,0.077,0.032,0.146,0.081,0.196l1.03,1.03l1.863-1.863c0.051-0.05,0.082-0.12,0.082-0.196
		C4.722,8.567,4.598,8.443,4.444,8.443z"/>
	<path fill="#CBA7A0" d="M4.444,11.221c-0.077,0-0.146,0.03-0.197,0.081l-1.47,1.471l-0.637-0.637
		c-0.05-0.05-0.12-0.082-0.196-0.082c-0.153,0-0.278,0.124-0.278,0.277c0,0.077,0.032,0.146,0.081,0.196l1.03,1.03l1.863-1.863
		c0.051-0.05,0.082-0.119,0.082-0.196C4.722,11.345,4.598,11.221,4.444,11.221z"/>
</g>
<rect x="5.278" y="6.498" fill="#CBA7A0" width="2.5" height="0.833"/>
<rect x="5.278" y="9.276" fill="#CBA7A0" width="2.5" height="0.833"/>
<rect x="5.278" y="12.054" fill="#CBA7A0" width="2.5" height="0.833"/>
<path fill="#CBA7A0" d="M0,3.998v11.389h20V3.998H0z M0.556,14.831V4.554h8.056v10.277H0.556z M19.444,14.831H9.167V4.554h10.278
	V14.831L19.444,14.831z"/>
<polygon fill="#CBA7A0" points="16.111,12.054 16.111,12.331 15.834,12.331 15.834,9.554 15.556,9.554 15.278,9.554 15.278,9.276 
	13.056,9.276 13.056,9.554 12.778,9.554 12.778,6.776 12.5,6.776 12.222,6.776 12.222,6.498 10,6.498 10,7.332 12.222,7.332 
	12.222,7.054 12.5,7.054 12.5,9.554 12.5,9.832 13.056,9.832 13.056,10.109 15.278,10.109 15.278,9.832 15.556,9.832 15.556,12.331 
	15.556,12.609 16.111,12.609 16.111,12.887 18.334,12.887 18.334,12.054 "/>
</svg>
