<?xml version="1.0" encoding="utf-8"?>
<!-- Generator: Adobe Illustrator 16.0.0, SVG Export Plug-In . SVG Version: 6.00 Build 0)  -->
<!DOCTYPE svg PUBLIC "-//W3C//DTD SVG 1.1//EN" "http://www.w3.org/Graphics/SVG/1.1/DTD/svg11.dtd">
<svg version="1.1" id="Layer_1" xmlns="http://www.w3.org/2000/svg" xmlns:xlink="http://www.w3.org/1999/xlink" x="0px" y="0px"
	 width="35.339px" height="30.953px" viewBox="0 0 35.339 30.953" enable-background="new 0 0 35.339 30.953" xml:space="preserve">
<g id="Recovery">
	<g>
		<path d="M19.555,24.613h-9.8c-0.363,0-0.658,0.262-0.658,0.592v4.466c0,0.322,0.295,0.59,0.658,0.59h9.8
			c0.362,0,0.653-0.268,0.653-0.59v-4.466C20.208,24.875,19.917,24.613,19.555,24.613z"/>
		<path d="M32.89,24.613h-9.796c-0.365,0-0.661,0.267-0.661,0.594v4.464c0,0.325,0.296,0.59,0.661,0.59h9.796
			c0.366,0,0.662-0.265,0.662-0.59v-4.464C33.552,24.879,33.256,24.613,32.89,24.613z"/>
		<path d="M15.467,16.744v4.464c0,0.325,0.3,0.595,0.66,0.595h9.799c0.366,0,0.661-0.27,0.661-0.595v-4.464
			c0-0.329-0.295-0.592-0.661-0.592h-9.799C15.767,16.152,15.467,16.415,15.467,16.744z"/>
		<path d="M16.455,11.703c0.321,0.226,0.765,0.147,0.996-0.179l2.236-3.213c0.226-0.321,0.147-0.767-0.175-0.994L18.821,6.84
			l-3.036,4.396L16.455,11.703z"/>
		<path d="M8.417,9.854l-5.929,8.467c0.431,0.917,1.396,1.541,2.346,1.646l5.936-8.464L8.417,9.854z"/>
		<path d="M5.162,3.234c0.236-0.042,0.477-0.081,0.594-0.087c0.485-0.021,0.951-0.054,1.436,0.036
			c2.066,0.396,3.69,2.279,2.336,4.214C9.162,7.913,8.432,8.932,8.44,8.945c0.004,0.008,3.081,2.134,3.065,2.157
			c-0.086,0.124,0.208-0.275,0.306-0.398c0.456-0.534,1.417-1.446,2.599-1.208c0.184,0.038,0.34,0.122,0.466,0.229
			c0.063,0.056,0.129,0.114,0.183,0.181c0.024,0.029,0.043,0.058,0.062,0.086c0.042,0.059,0.082,0.115,0.117,0.177
			c0.025,0.047,0.051,0.094,0.073,0.135c0.039,0.092,0.082,0.181,0.102,0.27c0.873-1.252,1.751-2.5,2.627-3.749
			c0,0-2.045,0.248-3.117-2.186c-0.22-0.156-0.45-0.31-0.671-0.467C11.17,2.016,8.246,1.576,5.698,2.27
			c-0.14,0.038-0.416,0.129-0.669,0.214C4.582,2.636,4.66,3.315,5.162,3.234z"/>
	</g>
</g>
</svg>
