<?xml version="1.0" encoding="utf-8"?>
<!-- Generator: Adobe Illustrator 16.0.3, SVG Export Plug-In . SVG Version: 6.00 Build 0)  -->
<!DOCTYPE svg PUBLIC "-//W3C//DTD SVG 1.1//EN" "http://www.w3.org/Graphics/SVG/1.1/DTD/svg11.dtd">
<svg version="1.1" id="Layer_1" xmlns="http://www.w3.org/2000/svg" xmlns:xlink="http://www.w3.org/1999/xlink" x="0px" y="0px"
	 width="20px" height="20px" viewBox="0 0 20 20" enable-background="new 0 0 20 20" xml:space="preserve">
<g>
	<path fill="none" d="M20,16c0,2.199-1.8,4-4,4H4c-2.2,0-4-1.801-4-4V4c0-2.2,1.8-4,4-4h12c2.2,0,4,1.8,4,4V16z"/>
</g>
<path fill="#C7C7C6" d="M6.43,4.626c0,0.607-0.494,1.099-1.102,1.099c-0.608,0-1.102-0.492-1.102-1.099c0-0.607,0.493-1.1,1.102-1.1
	C5.936,3.526,6.43,4.019,6.43,4.626z M5.443,12.16l0.238,4.059c0,0.141,0.115,0.258,0.257,0.258c0.143,0,0.259-0.117,0.259-0.258
	l0.22-4.059h0.718L6.394,7.609l1.494,2.976c0.055,0.131,0.206,0.193,0.338,0.138c0.131-0.056,0.193-0.206,0.138-0.339
	c0,0-1.095-2.961-1.366-3.513C6.727,6.318,6.461,5.983,5.433,5.983h-0.21c-1.025,0-1.294,0.335-1.563,0.888
	c-0.27,0.552-1.365,3.513-1.365,3.513c-0.057,0.133,0.005,0.283,0.135,0.339c0.132,0.056,0.283-0.007,0.34-0.138l1.494-2.976
	L3.52,12.16h0.717l0.223,4.059c0,0.141,0.116,0.258,0.257,0.258c0.146,0,0.261-0.117,0.261-0.258l0.222-4.059H5.443z M14.217,3.523
	c-0.608,0-1.103,0.492-1.103,1.1s0.494,1.1,1.103,1.1c0.606,0,1.099-0.492,1.099-1.1S14.823,3.523,14.217,3.523z M15.357,9.999
	l0.073-2.393l1.344,2.977c0.056,0.13,0.208,0.193,0.339,0.137c0.133-0.057,0.194-0.207,0.139-0.34c0,0-0.946-2.961-1.217-3.512
	c-0.271-0.552-0.688-0.887-1.714-0.887H14.11c-1.026,0-1.444,0.335-1.715,0.887c-0.269,0.551-1.215,3.512-1.215,3.512
	c-0.056,0.133,0.005,0.283,0.137,0.34s0.284-0.007,0.337-0.137L13,7.606l0.073,2.393l-0.212,6.015
	c-0.015,0.238,0.164,0.445,0.4,0.461c0.012,0.002,0.022,0.002,0.031,0.002c0.226,0,0.416-0.174,0.434-0.402l0.487-4.953l0.493,4.953
	c0.014,0.229,0.205,0.402,0.429,0.402c0.011,0,0.021,0,0.031-0.002c0.239-0.016,0.416-0.223,0.401-0.461l-0.213-6.015H15.357z
	 M9.771,10.211c-0.374,0-0.677,0.301-0.677,0.674c0,0.373,0.303,0.673,0.677,0.673c0.373,0,0.676-0.301,0.676-0.673
	C10.447,10.512,10.145,10.211,9.771,10.211z M9.771,14.186c0,0,0.304,2.111,0.304,2.113c0.042,0.104,0.139,0.178,0.257,0.178
	c0.121,0,0.223-0.08,0.26-0.191c0.002-0.006,0.009-0.131,0.002-0.15l-0.125-2.596l0.04-0.891c0.035-0.303,0.042-0.211,0.386-0.418
	c0.353-0.211,0.95-1.139,0.979-1.184c0.029-0.047,0.083-0.127,0.094-0.179c0.018-0.094-0.043-0.183-0.136-0.201
	c-0.07-0.012-0.13,0.025-0.175,0.074c-0.046,0.05-0.734,0.966-1.251,1.054c-0.116-0.016-0.241-0.078-0.57-0.078h-0.13
	c-0.327,0-0.452,0.063-0.569,0.078c-0.517-0.088-1.205-1.004-1.253-1.054c-0.044-0.049-0.102-0.086-0.173-0.074
	c-0.093,0.019-0.154,0.107-0.136,0.201C7.585,10.919,7.64,11,7.669,11.047c0.03,0.045,0.629,0.973,0.979,1.184
	c0.345,0.207,0.353,0.115,0.386,0.418l0.039,0.891l-0.124,2.596c-0.007,0.02,0,0.145,0.005,0.15
	c0.036,0.111,0.136,0.191,0.258,0.191c0.116,0,0.216-0.074,0.255-0.178C9.467,16.297,9.771,14.186,9.771,14.186"/>
</svg>
