<?xml version="1.0" encoding="utf-8"?>
<!-- Generator: Adobe Illustrator 16.0.0, SVG Export Plug-In . SVG Version: 6.00 Build 0)  -->
<!DOCTYPE svg PUBLIC "-//W3C//DTD SVG 1.0//EN" "http://www.w3.org/TR/2001/REC-SVG-20010904/DTD/svg10.dtd">
<svg version="1.0" id="Layer_1" xmlns="http://www.w3.org/2000/svg" xmlns:xlink="http://www.w3.org/1999/xlink" x="0px" y="0px"
	 width="20px" height="20px" viewBox="0 0 20 20" enable-background="new 0 0 20 20" xml:space="preserve">
<g>
	<circle fill="#231F20" cx="9.897" cy="10.582" r="0.809"/>
	<circle fill="#231F20" cx="4.567" cy="3.07" r="1.32"/>
	<path fill="#231F20" d="M18.872,9.975c0,0-1.134-3.554-1.461-4.214c-0.323-0.664-0.824-1.063-2.055-1.063h-0.254
		c-1.233,0-1.732,0.4-2.058,1.063c-0.322,0.66-1.456,4.214-1.456,4.214c-0.068,0.159,0.004,0.34,0.163,0.407
		c0.155,0.069,0.338-0.008,0.401-0.164l1.615-3.571l0.088,2.871l-0.255,7.22c-0.016,0.285,0.199,0.533,0.481,0.551
		c0.015,0.004,0.028,0.004,0.037,0.004c0.272,0,0.501-0.209,0.521-0.482l0.587-5.946l0.589,5.946
		c0.018,0.273,0.246,0.482,0.518,0.482c0.01,0,0.022,0,0.036-0.004c0.287-0.018,0.5-0.266,0.482-0.551l-0.257-7.22h0.003
		l0.088-2.871l1.614,3.571c0.064,0.156,0.248,0.233,0.404,0.164C18.865,10.315,18.938,10.134,18.872,9.975z"/>
	<circle fill="#231F20" cx="15.228" cy="3.068" r="1.32"/>
	<path fill="#231F20" d="M12.368,10.32c-0.085-0.015-0.155,0.03-0.21,0.09c-0.056,0.06-0.879,1.159-1.497,1.264
		c-0.141-0.02-0.29-0.092-0.686-0.092H9.822c-0.395,0-0.545,0.072-0.685,0.092c-0.618-0.105-1.446-1.205-1.503-1.264
		c-0.054-0.06-0.123-0.104-0.207-0.09c-0.11,0.021-0.187,0.129-0.163,0.242c0.012,0.062,0.077,0.158,0.114,0.215
		c0.035,0.054,0.752,1.167,1.174,1.42c0.413,0.248,0.422,0.139,0.462,0.5l0.048,1.07l-0.149,3.113c-0.009,0.027,0,0.176,0.005,0.182
		c0.044,0.135,0.162,0.23,0.312,0.23c0.137,0,0.259-0.09,0.304-0.213c0-0.004,0.364-2.537,0.364-2.537s0.369,2.533,0.369,2.537
		c0.048,0.123,0.165,0.213,0.306,0.213c0.146,0,0.266-0.096,0.312-0.23c0.002-0.006,0.012-0.154,0.002-0.182l-0.149-3.113
		l0.049-1.07c0.042-0.361,0.049-0.252,0.459-0.5c0.423-0.254,1.14-1.367,1.175-1.42c0.035-0.057,0.099-0.153,0.112-0.215
		C12.553,10.449,12.48,10.341,12.368,10.32z"/>
	<path fill="#231F20" d="M7.638,10.221c0.066,0.157,0.248,0.232,0.408,0.164c0.154-0.065,0.229-0.246,0.163-0.406
		c0,0-1.313-3.554-1.641-4.215C6.244,5.102,5.926,4.7,4.694,4.7H4.439c-1.23,0-1.551,0.402-1.874,1.065
		C2.242,6.426,0.926,9.979,0.926,9.979c-0.068,0.16,0.006,0.34,0.162,0.406c0.156,0.068,0.339-0.007,0.406-0.164l1.795-3.57
		l-0.894,5.46h0.859l0.27,4.873c0,0.168,0.139,0.309,0.308,0.309c0.174,0,0.312-0.141,0.312-0.309l0.268-4.873h0.292l0.286,4.873
		c0,0.168,0.137,0.309,0.31,0.309c0.172,0,0.31-0.141,0.31-0.309l0.265-4.873h0.858l-0.888-5.46L7.638,10.221z"/>
</g>
</svg>
