<?xml version="1.0" encoding="utf-8"?>
<!-- Generator: Adobe Illustrator 16.0.3, SVG Export Plug-In . SVG Version: 6.00 Build 0)  -->
<!DOCTYPE svg PUBLIC "-//W3C//DTD SVG 1.1//EN" "http://www.w3.org/Graphics/SVG/1.1/DTD/svg11.dtd">
<svg version="1.1" id="Layer_1" xmlns="http://www.w3.org/2000/svg" xmlns:xlink="http://www.w3.org/1999/xlink" x="0px" y="0px"
	 width="20px" height="20px" viewBox="0 0 20 20" enable-background="new 0 0 20 20" xml:space="preserve">
<circle fill="#D9DE90" cx="3.728" cy="11.187" r="0.588"/>
<circle fill="#D9DE90" cx="6.866" cy="8.901" r="0.588"/>
<circle fill="#D9DE90" cx="10.005" cy="11.187" r="0.588"/>
<circle fill="#D9DE90" cx="13.144" cy="8.901" r="0.588"/>
<circle fill="#D9DE90" cx="0.589" cy="8.901" r="0.588"/>
<circle fill="#D9DE90" cx="16.282" cy="11.187" r="0.588"/>
<circle fill="#D9DE90" cx="19.421" cy="8.901" r="0.588"/>
<g>
	<polygon fill="#D9DE90" points="5.492,9.565 4.606,10.364 4.913,10.704 5.799,9.904 5.984,10.116 5.896,9.473 5.305,9.356 	"/>
</g>
<g>
	<polygon fill="#D9DE90" points="2.651,10.139 1.744,9.364 1.447,9.712 2.354,10.485 2.17,10.697 2.796,10.527 2.834,9.926 	"/>
</g>
<g>
	<polygon fill="#D9DE90" points="8.962,10.139 8.055,9.364 7.758,9.712 8.665,10.485 8.479,10.697 9.105,10.527 9.144,9.926 	"/>
</g>
<g>
	<polygon fill="#D9DE90" points="15.271,10.139 14.364,9.364 14.067,9.712 14.975,10.485 14.79,10.697 15.416,10.527 15.453,9.926 	
		"/>
</g>
<g>
	<polygon fill="#D9DE90" points="11.802,9.565 10.917,10.364 11.224,10.703 12.108,9.904 12.294,10.115 12.207,9.473 11.614,9.356 	
		"/>
</g>
<g>
	<polygon fill="#D9DE90" points="18.113,9.565 17.228,10.364 17.534,10.703 18.419,9.904 18.604,10.115 18.518,9.473 17.925,9.356 	
		"/>
</g>
</svg>
