<?xml version="1.0" encoding="utf-8"?>
<!-- Generator: Adobe Illustrator 16.0.3, SVG Export Plug-In . SVG Version: 6.00 Build 0)  -->
<!DOCTYPE svg PUBLIC "-//W3C//DTD SVG 1.1//EN" "http://www.w3.org/Graphics/SVG/1.1/DTD/svg11.dtd">
<svg version="1.1" id="Layer_1" xmlns="http://www.w3.org/2000/svg" xmlns:xlink="http://www.w3.org/1999/xlink" x="0px" y="0px"
	 width="20px" height="20px" viewBox="0 0 20 20" enable-background="new 0 0 20 20" xml:space="preserve">
<path fill="#333333" d="M15.32,13.686c0.788,0,1.604,0.62,1.819,1.376l0.309,1.093c0.214,0.756-0.256,1.374-1.043,1.371l-12.8-0.007
	c-0.788,0-1.261-0.622-1.059-1.381l0.293-1.071c0.205-0.761,1.018-1.381,1.801-1.381H15.32z M17.169,12.225v-9.15
	c0-0.332-0.268-0.6-0.6-0.6H3.43c-0.33,0-0.6,0.268-0.6,0.6v9.15c0,0.329,0.27,0.6,0.6,0.6h13.139
	C16.901,12.824,17.169,12.554,17.169,12.225z M4.03,3.674h11.94v7.951H4.03V3.674z"/>
</svg>
