<?xml version="1.0" encoding="utf-8"?>
<!-- Generator: Adobe Illustrator 16.0.3, SVG Export Plug-In . SVG Version: 6.00 Build 0)  -->
<!DOCTYPE svg PUBLIC "-//W3C//DTD SVG 1.1//EN" "http://www.w3.org/Graphics/SVG/1.1/DTD/svg11.dtd">
<svg version="1.1" id="Layer_1" xmlns="http://www.w3.org/2000/svg" xmlns:xlink="http://www.w3.org/1999/xlink" x="0px" y="0px"
	 width="20px" height="20px" viewBox="0 0 20 20" enable-background="new 0 0 20 20" xml:space="preserve">
<g>
	<path fill="none" d="M20,16c0,2.2-1.8,4-4,4H4c-2.2,0-4-1.8-4-4V3.998c0-2.2,1.8-4,4-4h12c2.2,0,4,1.8,4,4V16z"/>
</g>
<path fill="#323232" d="M8.693,9.396c0.179,0.354,0.979,2.221,0.979,2.488c0,1.463-1.956,1.463-1.956,0
	C7.717,11.617,8.516,9.661,8.693,9.396z M9.85,8.569c0-0.203,0-0.54,0-1.128c0-0.718-0.65-1.335-1.511-1.335c0,0-0.005,0-2.011,0
	L6.317,5.481c0-0.183-0.147-0.328-0.328-0.328H5.203V4.751C5.271,4.709,5.327,4.66,5.375,4.596c0.236,0,0.714,0,1.676,0
	C7.161,4.741,7.328,4.84,7.522,4.84c0.334,0,0.605-0.271,0.605-0.606c0-0.33-0.271-0.603-0.605-0.603
	c-0.201,0-0.369,0.104-0.479,0.256c-0.266,0-0.76,0-1.66,0c-0.11-0.152-0.278-0.256-0.479-0.256s-0.37,0.104-0.48,0.256
	c-0.513,0-1.122,0-1.832,0c-0.109-0.152-0.28-0.256-0.479-0.256c-0.335,0-0.607,0.272-0.607,0.603c0,0.335,0.272,0.606,0.607,0.606
	c0.194,0,0.36-0.099,0.471-0.244c0.303,0,0.853,0,1.849,0c0.047,0.065,0.105,0.115,0.174,0.156v0.401H3.771
	c-0.18,0-0.327,0.146-0.327,0.328v0.625c-0.204,0-0.792,0-2.443,0v1.955c0.059,0,0.455,0,2.718,0c0.267,0.535,0.622,0.8,1.157,0.8
	c0.531,0,0.976-0.265,1.243-0.8c0,0,0,0,0.976,0c0.293,0,0.4,0.188,0.432,0.549C7.44,8.668,7.38,8.762,7.38,8.875
	c0,0.182,0.147,0.324,0.328,0.324h2.029c0.182,0,0.327-0.143,0.327-0.324C10.064,8.732,9.975,8.615,9.85,8.569z M10.151,14.221
	c-0.028,0.14-0.026,0.286,0.016,0.427c0.035,0.132,0.105,0.255,0.202,0.357c0.328,0.332,0.864,0.34,1.2,0.017l1.663-1.622
	l0.214,0.219l-1.665,1.622c-0.454,0.441-1.184,0.431-1.63-0.022c-0.154-0.158-0.24-0.355-0.287-0.563h-3.48
	c-0.473,0-0.857,0.384-0.857,0.854c0,0.475,0.385,0.857,0.857,0.857h6.03c0.196,0,0.376-0.077,0.524-0.196l3.925-2.971H19v-2.911
	h-0.018v-0.028h-4.95l-3.644,3.55C10.272,13.922,10.191,14.063,10.151,14.221z"/>
</svg>
