<?xml version="1.0" encoding="utf-8"?>
<!-- Generator: Adobe Illustrator 16.0.0, SVG Export Plug-In . SVG Version: 6.00 Build 0)  -->
<!DOCTYPE svg PUBLIC "-//W3C//DTD SVG 1.0//EN" "http://www.w3.org/TR/2001/REC-SVG-20010904/DTD/svg10.dtd">
<svg version="1.0" id="Layer_1" xmlns="http://www.w3.org/2000/svg" xmlns:xlink="http://www.w3.org/1999/xlink" x="0px" y="0px"
	 width="20px" height="20px" viewBox="0 0 20 20" enable-background="new 0 0 20 20" xml:space="preserve">
<path fill="#231F20" d="M13.687,17.19c0-0.505,1.513-4.202,1.848-4.707c0.336,0.673,1.85,4.202,1.85,4.707
	C17.384,19.959,13.687,19.959,13.687,17.19z M17.508,11.805h-3.839c-0.341,0-0.619-0.278-0.619-0.62
	c0-0.211,0.111-0.391,0.274-0.501c-0.059-0.683-0.263-1.04-0.815-1.04c-1.848,0-1.848,0-1.848,0
	c-0.503,1.013-1.343,1.517-2.351,1.517c-1.008,0-1.681-0.503-2.184-1.517c-4.282,0-5.031,0-5.14,0V5.948c3.122,0,4.232,0,4.62,0
	V4.76c0-0.339,0.278-0.62,0.62-0.62h1.579V3.382C7.672,3.307,7.563,3.21,7.471,3.089c-1.878,0-2.922,0-3.496,0
	C3.769,3.363,3.455,3.55,3.086,3.55c-0.633,0-1.145-0.509-1.145-1.143c0-0.633,0.512-1.145,1.145-1.145
	c0.377,0,0.697,0.2,0.903,0.484c1.345,0,2.497,0,3.467,0c0.208-0.284,0.53-0.484,0.908-0.484c0.38,0,0.698,0.2,0.91,0.484
	c1.701,0,2.637,0,3.138,0c0.208-0.284,0.528-0.484,0.906-0.484c0.63,0,1.145,0.512,1.145,1.145c0,0.633-0.515,1.143-1.145,1.143
	c-0.369,0-0.682-0.187-0.895-0.46c-1.815,0-2.719,0-3.166,0C9.167,3.208,9.062,3.303,8.933,3.38v0.761h1.486
	c0.344,0,0.621,0.281,0.621,0.62l0.021,1.188c3.792,0,3.801,0,3.801,0c1.629,0,2.856,1.168,2.856,2.52c0,1.117,0,1.753,0,2.138
	c0.239,0.087,0.409,0.312,0.409,0.579C18.127,11.526,17.849,11.805,17.508,11.805z"/>
</svg>
